<svg version="1.2" xmlns="http://www.w3.org/2000/svg" viewBox="0 0 204 99" width="204" height="99"><style>.a{fill:#fff}.b{fill:#ff3164}.c{fill:#85878b}.d{fill:#ff7d24}</style><path fill-rule="evenodd" class="a" d="m101.9 98.7c-3.2 0-5.5-1.6-5.8-1.8l-30.1-17.8c-2.9-1.7-5-3.8-6.2-6.2h-53.8c-2.4 0-5.3-2.9-5.3-5.3v-36.4c0-2.4 2.9-5.3 5.3-5.3h53.6c1.5-3.4 4.1-4.8 4.4-4.9l33-19.2c5.5-3.2 10.7 0.2 11.1 0.5l32.3 18.8c2.7 1.6 3.9 3.5 4.4 4.8h53.1c2.3 0 5.7 2.8 5.7 5.3v36.4c0 2.4-2.9 5.3-5.3 5.3h-54.2c-1.5 3.9-4.3 5.3-4.7 5.4l-32.1 18.9c-2 1.1-3.8 1.5-5.4 1.5zm-95.9-71.7c-1.9 0-4.2 2.3-4.2 4.2v36.4c0 1.9 2.3 4.2 4.2 4.2h54.4l0.2 0.3c1 2.4 3 4.5 5.9 6.1l30.2 17.8v0.1c0.2 0.1 4.5 3.4 10.1 0.2l32.1-18.9c0.1 0 3-1.2 4.4-5.2l0.1-0.4h54.9c1.9 0 4.2-2.3 4.2-4.2v-36.4c0-1.8-2.6-4.2-4.6-4.2h-53.9l-0.1-0.4q-0.8-2.7-4-4.6l-32.4-18.9c-0.2-0.1-4.9-3.4-9.9-0.4l-33.1 19.2c-0.1 0-2.7 1.3-4 4.7l-0.2 0.4z"/><path fill-rule="evenodd" class="a" d="m194.2 67.7h-54.7q-0.9 5.4-4.6 6.9l-28.1 16.5q-5.3 3-9.3-0.2l-26.8-15.7c-4.4-2.5-5.7-5.6-6-7.5h-54.6c-2.2 0-4-1.8-4-4v-28c0-2.2 1.8-4 4-4h54.6q0.6-5 4.3-6.7l29.3-16.8q4.7-2.9 9.1 0.4l28.4 16.5q4.8 2.8 3.9 6.6h54.5c2.2 0 4 1.8 4 4v28c0 2.2-1.8 4-4 4zm-167.1-24.5q-0.4-1.2-1.1-2-0.8-0.8-1.9-1.2-1.2-0.4-2.7-0.4h-6.2q-0.4 0-0.8 0.1-0.4 0.2-0.7 0.5-0.6 0.7-0.6 1.6v17.1h4.2v-6.7h4.4q1.4 0 2.5-0.4 1.1-0.4 1.8-1.2 0.8-0.9 1.1-2.1 0.4-1.1 0.4-2.6 0-1.5-0.4-2.7zm5.9-1.6q0-0.4-0.2-0.8-0.1-0.3-0.4-0.6-0.3-0.3-0.7-0.5-0.3-0.1-0.8-0.1h-2.1v19.3h4.2zm13.1 6.3q0-1-0.4-1.8-0.4-0.9-1.2-1.4-0.8-0.6-1.9-0.9-1.2-0.2-2.7-0.2-1.3 0-2.4 0.3-1.1 0.3-1.8 1-0.7 0.6-1.1 1.3-0.4 0.8-0.5 1.7v0.2h3.9l0.1-0.1q0.1-0.3 0.3-0.5 0.2-0.2 0.4-0.2 0.3-0.2 0.6-0.2 0.3-0.1 0.7-0.1 0.3 0 0.7 0.1 0.3 0.1 0.7 0.2 0.4 0.1 0.5 0.3 0.2 0.2 0.2 0.5 0 0.5-0.5 0.8-0.5 0.3-1.7 0.4c-0.8 0.1-1.7 0.3-2.5 0.5-0.8 0.2-1.7 0.6-2.4 1.1q-0.7 0.6-1 1.4-0.4 0.9-0.4 2.1 0 1.3 0.4 2.2 0.4 1 1.2 1.5 0.7 0.6 1.6 0.9 0.9 0.3 1.8 0.3 0.5 0 1.1-0.1 0.5 0 1.2-0.1 0.6 0 1.2-0.2 0.6-0.2 1.2-0.5 0.6-0.3 1-0.8 0.5-0.5 0.9-1.1 0.4-0.7 0.6-1.6 0.2-0.8 0.2-2zm13.8 2.3q0-2-0.5-3.3-0.6-1.4-1.6-2-1-0.7-2.1-1-1.1-0.3-2.3-0.3-1.2 0-2.3 0.4-1 0.3-2 1-1 0.7-1.5 2-0.5 1.3-0.5 3.2v8.8h4.2v-9.6q0-0.6 0.2-1 0.1-0.5 0.4-0.7 0.4-0.3 0.8-0.5 0.4-0.1 0.8-0.1 0.4 0 0.8 0.1 0.4 0.2 0.8 0.5 0.3 0.2 0.5 0.6 0.2 0.5 0.2 1.1v7.5q0 0.4 0.1 0.8 0.2 0.4 0.4 0.7 0.3 0.3 0.7 0.4 0.4 0.2 0.8 0.2h2.1zm72.7-22.2l-25.8-15.1q-4.1-3-8.4-0.4l-26.4 15.4q-3.4 1.5-3.9 6.1v31.5c0.3 1.7 1.5 4.5 5.5 6.9l24.1 14.2q3.7 3 8.5 0.3l25.6-15.1q3.4-1.4 4.2-6.3l0.2-31.5q0.8-3.4-3.6-6zm34.7 14h-4.8l-7.1 7.4 0.9-2.1-5.3-5.3h-4.7l8.1 8.3-8.1 8.3h4.7l7.3-7.4-1.1 2.2 5.3 5.2h4.8l-8.1-8.3zm17.3 0h-16.4v1.3 15.3h3.9v-7.2h12.5q4.1 0.1 4-4.7-0.1-4.6-4-4.7zm-1.9 6.3h-13.2l2.6-0.8v-4.3l0.8 1.9h9.9c0.2 0 2.6-0.7 2.7 1.6q0 2.3-2.8 1.6zm-141.3 6.7q-0.4 0.4-0.9 0.6-0.6 0.2-1.3 0.2-0.4 0-0.7-0.1-0.3-0.1-0.5-0.2-0.2-0.2-0.3-0.5-0.1-0.3-0.1-0.7 0-0.3 0.1-0.5 0-0.3 0.2-0.6 0.2-0.1 0.5-0.3 0.3-0.2 0.8-0.3 0 0 1.2-0.3 0.7-0.1 1.2-0.3 0.3-0.1 0.6-0.3v1.1q0 0.7-0.2 1.3-0.2 0.5-0.6 0.9zm-18.7-7.3v0.1q-0.3 0.2-0.8 0.4-0.5 0.2-1.2 0.2h-3.4v-5.1h3.6q0.6 0 1.1 0.2 0.4 0.1 0.7 0.4 0.3 0.4 0.4 0.8 0.2 0.5 0.2 1.1 0 0.7-0.2 1.2-0.1 0.5-0.4 0.7z"/><path class="a" d="m106.7 14.9l24.2 13.9q4.1 2.4 3.3 5.5v28.4q0 6.3-4.1 7.9l-24 14q-4.5 2.4-8-0.3l-22.8-13.2q-5.9-3.4-5.2-7.9v-27.6q0-5.2 3.7-6.9l25-14.2q4.1-2.4 7.9 0.4z"/><path class="b" d="m132.6 63.4c0 2.2-1.2 4.3-3.1 5.4l-24.1 13.9c-0.4 0.2-0.9 0.2-1.3 0-0.4-0.3-0.6-0.7-0.6-1.1v-28.9c0-1.6 0.8-3 2.1-3.7l25-14.5c0.4-0.2 0.9-0.2 1.3 0 0.4 0.2 0.7 0.7 0.7 1.1z"/><path class="c" d="m99 49c1.3 0.7 2.1 2.1 2.1 3.7v28.9c0 0.4-0.2 0.8-0.6 1.1-0.4 0.2-0.9 0.2-1.3 0q0 0 0 0l-24-13.9c-2-1.1-3.1-3.2-3.1-5.4v-27.8c0-0.4 0.2-0.9 0.6-1.1 0.4-0.2 0.9-0.2 1.3 0z"/><path class="d" d="m104.5 46.9c-1.4 0.8-3 0.8-4.3 0l-25-14.4c-0.4-0.2-0.7-0.7-0.7-1.1 0-0.5 0.3-0.9 0.7-1.1l24-13.9c1.9-1.1 4.3-1.1 6.2 0l24.1 13.9q0 0 0 0c0.4 0.2 0.6 0.6 0.6 1.1 0 0.4-0.2 0.9-0.6 1.1z"/></svg>