<svg version="1.2" xmlns="http://www.w3.org/2000/svg" viewBox="0 0 70 41" width="70" height="41"><style>.a{fill:#939598}</style><path class="a" d="m38.7 3.5c1.9-0.2 3.8-0.6 5.7-1.2 2.8-1.8 6.2-2.2 9.6-1.3 5.1 1.3 9.6 5.4 12.6 11.1 5 10.1 3.3 21.6-3.8 26.4-2.8 1.9-6.3 2.4-9.8 1.5-4.8-1.2-9.2-5-12.1-10.5-3.6-1.3-7.5-1.2-11 0.2-2.9 5.5-7.4 9.4-12.3 10.7q-1.7 0.4-3.3 0.4c-2.5 0-4.7-0.7-6.7-2-7.3-4.8-8.9-16.6-3.7-26.8 2.9-5.9 7.5-10 12.6-11.4 3.5-1 7-0.5 9.9 1.4 2.5 0.9 5.3 1.5 8.1 1.7 0 0 1.5 0.2 4.2-0.2zm21.7 31.3c-1.8 1.3-4 1.5-6.3 1-3.7-1-7.3-4.3-9.6-8.7-0.3-0.7-0.9-1.1-1.6-1.4l-0.3-0.1c-4.7-1.9-10.2-1.8-14.9 0.3-0.6 0.3-1.1 0.7-1.4 1.3-2.4 4.6-6.1 8-9.8 8.9-2.4 0.6-4.6 0.3-6.5-0.9-5.3-3.5-6.3-13.2-2.3-21.2 2.4-4.7 6.1-8.1 9.9-9.2 0.8-0.2 1.6-0.3 2.3-0.3 1.5 0 2.9 0.5 4.2 1.3q0.2 0.1 0.4 0.2c6.8 2.6 14.4 2.8 21.3 0.4h0.3c0.1-0.1 0.3-0.2 0.5-0.3 1.8-1.2 4-1.5 6.3-0.9 3.9 1 7.4 4.3 9.8 8.9 3.9 7.8 2.9 17.3-2.3 20.7zm-1.1-16.3c0 4-3.3 7.3-7.3 7.3-4 0-7.3-3.3-7.3-7.3 0-4 3.3-7.3 7.3-7.3 4 0 7.3 3.3 7.3 7.3zm-7.3 2.9c-1.6 0-2.9-1.3-2.9-2.9 0-1.6 1.3-2.9 2.9-2.9 1.6 0 2.9 1.3 2.9 2.9 0 1.6-1.3 2.9-2.9 2.9zm-27.8-2.8c0 1.3-1 2.2-2.2 2.2h-2.2v2.2c0 1.3-1 2.2-2.2 2.2-1.3 0-2.2-0.9-2.2-2.2v-2.2h-2.2c-1.3 0-2.2-0.9-2.2-2.2 0-1.2 0.9-2.1 2.2-2.1h2.2v-2.2c0-1.3 0.9-2.2 2.2-2.2 1.2 0 2.2 0.9 2.2 2.2v2.2h2.2c1.2 0 2.2 0.9 2.2 2.1z"/></svg>